<?xml version="1.0" encoding="UTF-8"?>
<!-- Generator: Adobe Illustrator 26.0.1, SVG Export Plug-In . SVG Version: 6.00 Build 0)  -->
<svg xmlns="http://www.w3.org/2000/svg" xmlns:xlink="http://www.w3.org/1999/xlink" version="1.1" id="Layer_1" x="0px" y="0px" viewBox="0 0 762.3 271" style="enable-background:new 0 0 762.3 271;" xml:space="preserve">
<style type="text/css">
	.st0{fill:#7291CA;}
	.st1{fill:#2D5676;}
	.st2{fill:#6699FF;}
	.st3{fill:#2E5575;}
</style>
<g>
	<polygon class="st2" points="539.7,0 444.9,176.9 558.4,176.9 600.5,98.1 695,271 737.9,271 591.3,0  "></polygon>
	<polygon class="st2" points="628.3,0 723.4,176.9 762.3,176.9 667.1,0  "></polygon>
	<path class="st3" d="M155.7,107.2c2.5,0,4.7-0.9,6.5-2.7c1.8-1.8,2.7-4,2.7-6.4c0-2.5-0.9-4.7-2.8-6.5c-1.9-1.8-4-2.7-6.5-2.7   c-2.5,0-4.6,0.9-6.4,2.8c-1.8,1.9-2.7,4-2.7,6.4c0,2.5,0.9,4.6,2.6,6.4C151,106.3,153.1,107.2,155.7,107.2"></path>
	<path class="st3" d="M13.4,166.6c1.1-3.3,2.9-8.5,5.4-15.5h27c1.4,3.4,2.8,7.3,4.3,11.8c0.9,2.7,2.1,6.5,3.7,11.7h19.8L41.7,95.3   h-9.1L0,174.6h10.9C11.6,172.3,12.4,169.6,13.4,166.6 M32.8,117.1l10.3,27H21.9L32.8,117.1z"></path>
	<polygon class="st3" points="99.4,84.5 83.5,88.1 83.5,174.6 99.4,174.6  "></polygon>
	<polygon class="st3" points="115.6,174.6 131.6,174.6 131.6,84.5 115.6,88.1  "></polygon>
	<polygon class="st3" points="163.8,116.3 147.8,119.9 147.8,174.6 163.8,174.6  "></polygon>
	<path class="st3" d="M217.5,176.4c1.4,0,3.1-0.3,5.1-1c2-0.7,3.8-1.4,5.3-2.1v-2.7c-2.3,0-3.9-0.4-4.7-1.1   c-0.8-0.7-1.2-2.2-1.2-4.3v-31.5c0-5.3-2.5-9.4-7.4-12.1c-3.9-2.2-8.8-3.4-14.6-3.4c-3.9,0-7.7,0.7-11.6,2   c-3.9,1.3-7.2,3.2-9.8,5.6l1.5,7.2h0.8c0.5-1.4,2-2.9,4.5-4.4c3.1-1.9,6.3-2.8,9.6-2.8c2.8,0,5.3,1,7.6,3.1c2.3,2,3.4,4.4,3.4,7.1   c0,1-0.1,1.9-0.4,2.5c-0.3,0.7-0.7,1.4-1.3,2c-1.1,0.7-2.5,1.3-4.2,1.9c-1.1,0.3-2.5,0.7-4.3,1.2c-7.9,1.9-13.3,3.9-16.1,6   c-3.4,2.5-5.1,6.4-5.1,11.7c0,4.9,1.6,8.7,4.7,11.5c2.9,2.5,6.9,3.8,11.8,3.8c3.1,0,5.9-0.7,8.6-2.2c2.6-1.5,4.7-3.5,6.2-6.2   c0.9,2.6,2.4,4.7,4.5,6.2C212.5,175.6,214.8,176.4,217.5,176.4 M206,156.2c0,3.5-0.6,6.4-1.7,8.6c-1.5,2.7-3.8,4-7.1,4   c-2.3,0-4-0.9-4.9-2.7c-1-1.8-1.4-4-1.4-6.6c0-2.2,0.3-4,0.8-5.6c0.5-1.5,1.5-2.9,2.9-4c1.4-1.1,3.4-2.1,5.9-3.1   c1.4-0.5,3.2-1.1,5.6-2V156.2z"></path>
	<path class="st3" d="M236.1,174.6h16v-25.9c0-5.9,0.4-10.3,1.3-13.2c1.5-5.1,4.4-7.6,8.8-7.6c3.8,0,6.4,1.8,7.9,5.3   c1.1,2.6,1.6,7.1,1.6,13.3v28.1h16v-33.2c0-7.6-1.2-13.3-3.7-16.9c-2.9-4.2-7.7-6.4-14.6-6.4c-3.5,0-6.8,0.9-9.9,2.8   c-2.7,1.6-5.3,3.9-7.9,6.8v-7.9h-15.4V174.6z"></path>
	<path class="st3" d="M307.7,169.2c5.4,4.8,12.7,7.2,21.9,7.2c2.4,0,5.2-0.4,8.6-1.3c3.3-0.8,5.7-1.9,7.1-3.1l2.8-6.9l-2-1.6   c-1.5,1.7-3.3,3-5.4,4c-2.1,1-4.3,1.4-6.7,1.4c-6.1,0-10.5-2-13.4-6c-2.8-4-4.2-9.6-4.2-16.8c0-5.6,1-10.4,3-14.6   c2.6-5.4,6.4-8.1,11.2-8.1c3.3,0,6.1,1.2,8.2,3.6c1.9,2.2,3.1,5,3.6,8.4h2.8l4.4-12c-2.7-1.8-5.8-3.1-9.2-3.9   c-3.4-0.8-7-1.3-10.7-1.3c-9.2,0-16.5,2.7-22.1,8.1c-5.6,5.4-8.3,12.7-8.3,22C299.3,157.2,302.1,164.2,307.7,169.2"></path>
	<path class="st3" d="M396.2,167.5c-2.3,0.9-4.7,1.4-7.1,1.4c-5.9,0-10.1-2.1-12.7-6.2c-2.2-3.5-3.4-8.6-3.4-15.3h33.1   c0-9-1.7-16-5.1-20.8c-3.9-5.6-10.1-8.3-18.6-8.3c-8.2,0-14.6,2.6-19.4,7.7c-4.7,5.1-7.1,11.8-7.1,20.1c0,9.6,2.5,17.1,7.4,22.4   c4.9,5.3,12.2,8,21.6,8c6.1,0,11.6-1.7,16.5-5.2l2.5-6.5l-1.4-1C400.7,165.3,398.5,166.5,396.2,167.5 M374.7,130.2   c1.5-4.6,4.2-6.8,7.9-6.8c3.1,0,5.2,2.3,6.5,6.9c0.8,2.9,1.2,6.7,1.2,11.5h-17.1C373.1,137.2,373.6,133.4,374.7,130.2"></path>
	<polygon class="st3" points="163.8,116.3 147.8,119.9 147.8,174.6 163.8,174.6  "></polygon>
	<rect x="0" y="201.9" class="st1" width="6.1" height="46.7"></rect>
	<path class="st3" d="M45.9,229c0-4.7-0.9-8.1-2.6-10.3c-1.8-2.2-4.6-3.3-8.5-3.3c-2.4,0-4.6,0.6-6.5,1.8c-1.9,1.2-3.5,2.8-4.7,5v-6   H18v32.5h5.5v-15.7c0-4.6,0.6-8,1.8-10.1c1.4-2.5,3.9-3.7,7.3-3.7c3,0,5.1,1.1,6.3,3.3c0.9,1.8,1.4,4.5,1.4,8.2v18.1h5.5V229z"></path>
	<path class="st3" d="M67.4,230.1c-5.5-1.8-8.2-4-8.2-6.8c0-1.8,0.6-3.2,1.8-4.2c1.2-1,2.7-1.5,4.5-1.5c1.2,0,2.4,0.5,3.5,1.4   c1.1,0.9,1.9,2,2.4,3.2H72c0.4-1.7,1-3.3,1.7-4.9c-0.7-0.4-1.8-0.8-3.2-1.2c-1.5-0.4-3-0.6-4.6-0.6c-3.3,0-6,0.9-8.1,2.7   c-2.1,1.8-3.2,4.3-3.2,7.6c0,4.3,2.7,7.2,8.2,8.7c5.5,1.6,8.2,3.8,8.2,6.7c0,1.8-0.7,3.3-2.1,4.5c-1.4,1.2-3,1.8-4.7,1.8   c-1.6,0-3.1-0.5-4.5-1.5c-1.4-1-2.6-2.2-3.5-3.7h-0.6c-0.1,0.8-0.3,1.7-0.6,2.5c-0.3,0.9-0.6,1.7-0.8,2.5c1.2,0.7,2.5,1.2,4.1,1.6   c1.6,0.4,3.1,0.6,4.5,0.6c3.4,0,6.3-0.9,8.7-2.7c2.7-2,4.1-4.8,4.1-8.2C75.6,234.7,72.8,231.9,67.4,230.1"></path>
	<path class="st3" d="M111,216.2h-5.5V235c0,3.1-0.5,5.6-1.6,7.4c-1.4,2.5-3.7,3.7-6.9,3.7c-3,0-5.2-1-6.5-2.9   c-1.3-1.9-1.9-4.8-1.9-8.7v-18.4H83v20c0,4.7,0.9,8.1,2.8,10.2c1.9,2.1,4.7,3.2,8.6,3.2c5.1,0,8.8-2.2,11-6.5v5.6h5.5V216.2z"></path>
	<path class="st3" d="M132,217.4c-1.3,1.1-2.6,2.6-3.9,4.6l-0.3,0.8v-6.6h-5.5v32.5h5.5V231c0-2,0.2-3.7,0.5-5   c0.3-1.3,1-2.6,2.1-3.8c0.5-0.6,1.2-1,2-1.3c0.8-0.3,1.6-0.5,2.4-0.5c0.5,0,1.1,0.2,1.8,0.5c0.7,0.3,1.2,0.5,1.5,0.6l1-5.8   c-0.5-0.2-1.2-0.3-2.1-0.3C135.2,215.5,133.6,216.1,132,217.4"></path>
	<path class="st3" d="M168.4,245.2v-2v-16.1c0-7.8-3.7-11.6-11.2-11.6c-2,0-3.9,0.3-5.7,1c-1.8,0.6-3.6,1.6-5.4,2.8v3.9h0.8   c0.3-1.1,1.1-2.1,2.4-3c1.7-1.2,3.6-1.8,5.8-1.8c2.6,0,4.6,0.7,6,2.1c1.4,1.4,2.1,3.4,2.1,6c0,1.6-0.6,2.7-1.7,3.3   c-0.8,0.4-2.7,0.9-5.7,1.4c-4.3,0.7-7.3,1.5-8.9,2.4c-2.6,1.5-4,4-4,7.6c0,2.5,0.9,4.5,2.7,6.1c1.8,1.6,4,2.4,6.5,2.4   c3.9,0,7.4-1.5,10.3-4.4l0.6-0.6c0.2,1.5,0.7,2.6,1.5,3.3c0.8,0.6,1.9,1,3.3,1c0.7,0,1.4,0,1.9-0.1c0.5-0.1,1-0.2,1.4-0.4   c0.4-0.2,0.8-0.3,1-0.4v-1.5c-0.7,0.2-1.4,0.3-2,0.3C169.2,246.6,168.6,246.2,168.4,245.2 M162.9,241.9c0,0.2-0.2,0.6-0.7,1   c-0.4,0.4-0.8,0.8-1.2,1.1c-0.7,0.7-1.6,1.3-2.6,1.8c-1.1,0.5-2,0.8-2.9,0.8c-2.1,0-3.8-0.6-5-1.7c-1.2-1.1-1.8-2.7-1.8-4.9   c0-2.8,1.4-4.8,4.2-6c1.1-0.5,3.6-1.1,7.6-1.9l2.4-0.5V241.9z"></path>
	<path class="st3" d="M185.4,232.9c0-4.6,0.6-8,1.8-10.1c1.4-2.5,3.9-3.7,7.3-3.7c3,0,5.1,1.1,6.3,3.3c0.9,1.8,1.4,4.5,1.4,8.2v18.1   h5.5V229c0-4.7-0.9-8.1-2.6-10.3c-1.8-2.2-4.6-3.3-8.5-3.3c-2.4,0-4.6,0.6-6.5,1.8c-1.9,1.2-3.5,2.8-4.7,5v-6h-5.5v32.5h5.5V232.9z   "></path>
	<path class="st3" d="M233.9,217.8c1.3,0,2.6,0.2,3.8,0.7c1.2,0.5,2.3,1.2,3,2c0.3,0.3,0.6,0.6,1,1.1c0.3,0.4,0.6,0.8,0.9,1.2h0.6   l1.6-4.6c-1.7-1-3.4-1.7-5.1-2.2c-1.8-0.4-3.7-0.7-5.8-0.7c-5.3,0-9.6,1.5-13,4.5c-3.3,3-5,7.1-5,12.4c0,5.1,1.5,9.2,4.5,12.3   c3.2,3.3,7.6,4.9,13.2,4.9c3.9,0,7.5-1.2,10.6-3.5l0.3-3.2l-0.4-0.2c-1.7,1.5-3.2,2.6-4.4,3.3c-1.6,0.8-3.3,1.2-5.2,1.2   c-3.7,0-6.8-1.4-9.1-4.3c-2.3-2.8-3.5-6.5-3.5-10.9c0-3.9,1-7.2,3-9.8C227.1,219.3,230.1,217.8,233.9,217.8"></path>
	<path class="st3" d="M280,232.5c0-5.6-1.4-9.9-4.2-12.9c-2.5-2.7-5.8-4.1-9.9-4.1c-5,0-9,1.6-11.9,4.9c-2.7,3.1-4,7.1-4,12.1   c0,5.3,1.5,9.4,4.5,12.5c3,3,7,4.6,11.9,4.6c2.2,0,4.3-0.4,6.2-1.1c2-0.7,3.9-1.7,5.7-3l0.1-3.6c-1.4,1.3-2.8,2.3-4.1,3.1   c-2,1.1-4,1.6-6.2,1.6c-4,0-7-1.4-9.2-4.3c-1.9-2.6-2.8-5.9-2.8-10.1h9.8L280,232.5z M258.6,221.4c1.8-2.6,4.3-3.8,7.3-3.8   c3.2,0,5.5,1.3,6.9,3.8c1.2,2,1.7,4.8,1.7,8.4h-18.4C256.1,226.5,256.9,223.7,258.6,221.4"></path>
	<path class="st3" d="M334.2,243.1h3.3v4h-3.7c-1.7,0-3.2-0.3-4.4-1c-0.4,3.3-1.9,6-4.4,7.8c-2.3,1.7-5.1,2.6-8.4,2.6   c-4.3,0-7.6-1.5-9.9-4.5c-1.8-2.3-2.7-5.1-2.7-8.3c0-2.8,0.7-5.1,2.1-7.1l4.1-0.9c-1.5,2.3-2.2,4.8-2.2,7.5c0,2.8,0.9,5,2.6,6.8   c1.6,1.6,3.7,2.5,6.2,2.5c2.9,0,5.1-0.8,6.7-2.5c1.3-1.4,2-3.2,2-5.5V228l4.2-2.3v12.5C329.4,241.5,331,243.1,334.2,243.1    M316.2,224.9c-1.6,0-2.4-0.8-2.4-2.5c0-1.6,0.8-2.4,2.4-2.4c1.6,0,2.4,0.8,2.4,2.4C318.6,224.1,317.8,224.9,316.2,224.9"></path>
	<path class="st3" d="M351.6,243.1h3.2v4h-3.7c-2.7,0-4.9-0.9-6.5-2.6c-1.6,1.7-3.7,2.6-6.5,2.6h-3.7v-4h3.3c3.2,0,4.8-1.6,4.8-4.9   V228l4.2-2.3v12.5C346.8,241.5,348.4,243.1,351.6,243.1 M339.9,252c1.6,0,2.4,0.8,2.4,2.5c0,1.6-0.8,2.4-2.4,2.4   c-1.6,0-2.4-0.8-2.4-2.4C337.5,252.9,338.3,252,339.9,252 M346.1,252c1.6,0,2.4,0.8,2.4,2.5c0,1.6-0.8,2.4-2.4,2.4   c-1.6,0-2.4-0.8-2.4-2.4C343.7,252.9,344.5,252,346.1,252"></path>
	<path class="st3" d="M360,233.8c0-2.9,0.9-5.1,2.6-6.6c1.5-1.3,3.5-2,5.9-2c3.1,0,5.5,1.1,7.2,3.4c1.4,1.9,2.2,4.5,2.2,7.6   c0,3.5-0.9,6.3-2.8,8.3c-1.6,1.8-3.7,2.7-6.3,2.7c-3,0-5.2-0.8-6.7-2.5c-1.6,1.6-3.7,2.5-6.4,2.5h-3.7v-4h3.3   c3.2,0,4.8-1.6,4.8-4.9V233.8z M364.3,238.6c0,3.1,1.5,4.6,4.5,4.6c1.5,0,2.8-0.6,3.6-1.9c0.9-1.2,1.3-3,1.3-5.2   c0-2.2-0.5-3.9-1.4-5.1c-0.9-1.2-2.2-1.8-3.8-1.8c-2.8,0-4.2,1.6-4.2,4.9V238.6z"></path>
	<path class="st3" d="M383.4,214.7l1.1-2.1h1.3c-0.3-0.6-0.5-1.2-0.5-1.9c0-1,0.4-1.8,1.1-2.5c0.7-0.7,1.6-1.1,2.5-1.1   c0.8,0,1.6,0.3,2.4,0.8v2.2c-0.7-0.6-1.4-0.8-2.1-0.8c-1.2,0-1.8,0.6-1.8,1.7c0,0.5,0.2,1.1,0.7,1.6h4.5l-1.1,2.1H383.4z    M394.5,247.1c-2.9,0-5.1-0.9-6.6-2.8c-1.3-1.6-2-3.6-2-6v-18.8l4.2-2.3v20.9c0,3.3,1.6,4.9,4.8,4.9h3.3v4H394.5z"></path>
	<path class="st3" d="M412.5,243.1h3.2v4H412c-2.7,0-4.9-0.9-6.5-2.6c-1.6,1.7-3.7,2.6-6.5,2.6h-3.7v-4h3.3c3.2,0,4.8-1.6,4.8-4.9   V228l4.2-2.3v12.5C407.6,241.5,409.3,243.1,412.5,243.1 M400.8,220.1c-1.6,0-2.4-0.8-2.4-2.5c0-1.6,0.8-2.4,2.4-2.4   c1.6,0,2.4,0.8,2.4,2.4C403.2,219.3,402.4,220.1,400.8,220.1 M407.2,220.1c-1.6,0-2.4-0.8-2.4-2.5c0-1.6,0.8-2.4,2.4-2.4   c1.6,0,2.4,0.8,2.4,2.4C409.5,219.3,408.7,220.1,407.2,220.1"></path>
	<path class="st3" d="M429.6,243.1h3.2v4h-3.7c-2.8,0-5-0.9-6.6-2.7c-1.6,1.8-3.9,2.7-6.8,2.7h-3v-4h2.6c3.4,0,5.1-1.8,5.1-5.4   v-20.1l4.3-2.3v22.5c0,1.9,0.4,3.3,1.1,4.1C426.6,242.7,427.9,243.1,429.6,243.1"></path>
	<path class="st3" d="M429.9,247.1v-4h2.6c3.4,0,5.1-1.8,5.1-5.4v-20.1l4.3-2.3v22.5c0,2.9-0.9,5.2-2.6,6.9   c-1.6,1.6-3.8,2.4-6.5,2.4H429.9z"></path>
	<path class="st3" d="M524.2,243.1h4.1v4h-4.4c-2.9,0-5.2-0.9-6.8-2.7c-1.5,1.8-3.7,2.7-6.5,2.7h-3.3c-2.8,0-4.9-0.9-6.4-2.6   c-1.5,1.7-3.7,2.6-6.5,2.6h-3.2c-1.7,0-3.2-0.3-4.4-1c-0.4,3.3-1.9,6-4.4,7.8c-2.3,1.7-5.1,2.6-8.4,2.6c-4.3,0-7.6-1.5-9.9-4.5   c-1.8-2.3-2.7-5.1-2.7-8.3c0-2.8,0.7-5.1,2.1-7.1l4.1-0.9c-1.5,2.3-2.2,4.8-2.2,7.5c0,2.8,0.9,5,2.6,6.8c1.6,1.6,3.7,2.5,6.2,2.5   c2.9,0,5.1-0.8,6.7-2.5c1.3-1.4,2-3.3,2-5.5v-13.1l4.2-2.3v9.2c0,3.3,1.6,4.9,4.8,4.9h2.3c3.2,0,4.8-1.6,4.8-4.9v-8.6l4.3-2.2v10.8   c0,3.3,1.6,4.9,4.8,4.9h2.3c3.2,0,4.8-1.6,4.8-4.9V228l4.3-2.3v12C519.1,241.3,520.8,243.1,524.2,243.1"></path>
	<path class="st3" d="M542.5,243.1h3.2v4H542c-2.7,0-4.9-0.9-6.5-2.6c-1.6,1.7-3.7,2.6-6.5,2.6h-3.7v-4h3.3c3.2,0,4.8-1.6,4.8-4.9   V228l4.2-2.3v12.5C537.7,241.5,539.3,243.1,542.5,243.1 M534.7,219.8c-1.6,0-2.4-0.8-2.4-2.5c0-1.6,0.8-2.4,2.4-2.4   c1.6,0,2.4,0.8,2.4,2.4C537.1,219,536.3,219.8,534.7,219.8"></path>
	<path class="st3" d="M542.8,247.1v-4h3.3c3.2,0,4.8-1.6,4.8-4.9V228l4.2-2.3v12.6c0,2.8-0.8,5-2.5,6.6c-1.5,1.4-3.6,2.2-6.1,2.2   H542.8z M545.4,256.9c-1.6,0-2.4-0.8-2.4-2.5c0-1.6,0.8-2.4,2.4-2.4c1.6,0,2.4,0.8,2.4,2.4C547.8,256.1,547,256.9,545.4,256.9    M551.7,256.9c-1.6,0-2.4-0.8-2.4-2.5c0-1.6,0.8-2.4,2.4-2.4c1.6,0,2.4,0.8,2.4,2.4C554,256.1,553.2,256.9,551.7,256.9"></path>
	<path class="st3" d="M591.3,243.1h3.3v4h-3.7c-2.8,0-5-0.9-6.6-2.7c-1.6,1.8-3.9,2.7-6.8,2.7h-16.9l2.1-4h7.2V224l4.2-2.3v21.4h3.1   c3.4,0,5.1-1.8,5.1-5.4v-20.1l4.3-2.3v22.5c0,1.9,0.4,3.3,1.1,4.1C588.4,242.7,589.6,243.1,591.3,243.1"></path>
	<path class="st3" d="M591.6,247.1v-4h2.6c3.4,0,5.1-1.8,5.1-5.4v-20.1l4.3-2.3v22.5c0,2.9-0.9,5.2-2.6,6.9   c-1.6,1.6-3.8,2.4-6.5,2.4H591.6z"></path>
	<polygon class="st3" points="612.5,247.1 612.5,217.6 616.7,215.4 616.7,247.1  "></polygon>
</g>
</svg>
