<?xml version="1.0" encoding="UTF-8"?>
<svg id="Layer_1" xmlns="http://www.w3.org/2000/svg" xmlns:xlink="http://www.w3.org/1999/xlink" version="1.1" viewBox="0 0 144.71 116.87">
  <!-- Generator: Adobe Illustrator 29.6.0, SVG Export Plug-In . SVG Version: 2.1.1 Build 207)  -->
  <defs>
    <style>
      .st0 {
        fill: none;
      }

      .st1 {
        fill: url(#linear-gradient1);
      }

      .st2 {
        fill: #d9d9d8;
      }

      .st3 {
        fill: url(#linear-gradient);
      }

      .st4 {
        fill: #1d1e1c;
      }

      .st5 {
        fill: #1d1d1b;
      }

      .st6 {
        clip-path: url(#clippath-1);
      }

      .st7 {
        clip-path: url(#clippath);
      }
    </style>
    <clipPath id="clippath">
      <path class="st0" d="M58.84,36.61v-2.08c-.05-9.05,5.25-17.27,13.52-20.95,8.23,3.69,13.51,11.88,13.46,20.9l.05,32.34h-27l-.03-30.21ZM50.72,34.49v40.33h43.38v-40.28c.02-13.59-8.78-25.62-21.74-29.72-12.9,4.13-21.65,16.13-21.64,29.67Z"/>
    </clipPath>
    <linearGradient id="linear-gradient" x1="-1351.55" y1="-3.96" x2="-1350.16" y2="-3.96" gradientTransform="translate(58547.01 211.27) scale(43.29)" gradientUnits="userSpaceOnUse">
      <stop offset="0" stop-color="#004266"/>
      <stop offset="1" stop-color="#108fcf"/>
    </linearGradient>
    <clipPath id="clippath-1">
      <path class="st0" d="M68.72,37.02h0v-.56c-.02-2.44,1.41-4.65,3.64-5.64,2.21.99,3.63,3.19,3.62,5.62v20.63h-7.26v-20.05ZM72.17,28.53c-3.37,1.17-5.63,4.35-5.62,7.92v22.7h11.67v-22.67c0-3.57-2.25-6.75-5.63-7.92l-.42-.03Z"/>
    </clipPath>
    <linearGradient id="linear-gradient1" x1="-1540.86" y1="-20.84" x2="-1539.47" y2="-20.84" gradientTransform="translate(-12831.52 -130.78) rotate(-180) scale(8.38)" gradientUnits="userSpaceOnUse">
      <stop offset="0" stop-color="#02602d"/>
      <stop offset=".11" stop-color="#017736"/>
      <stop offset=".23" stop-color="#00883c"/>
      <stop offset=".37" stop-color="#009240"/>
      <stop offset=".53" stop-color="#009541"/>
      <stop offset=".66" stop-color="#008c3e"/>
      <stop offset=".87" stop-color="#017334"/>
      <stop offset="1" stop-color="#02602d"/>
    </linearGradient>
  </defs>
  <path class="st2" d="M65.01,34.73v1.09h0v25h14.77v-26.12c0-4.95-2.9-9.44-7.42-11.46-4.51,2.04-7.4,6.54-7.36,11.49M60.53,34.73c-.03-7.44,4.76-14.04,11.83-16.33,7.07,2.3,11.84,8.9,11.81,16.33h0v30.6h-23.65v-30.6Z"/>
  <g class="st7">
    <rect class="st3" x="37.48" y="-1.19" width="69.75" height="81.95" transform="translate(-10.12 35.89) rotate(-26.1)"/>
  </g>
  <g class="st6">
    <rect class="st1" x="66.53" y="28.53" width="11.66" height="30.62"/>
  </g>
  <path class="st4" d="M3.04,100.36v-2.44c0-.37-.14-.59-.4-.65-.14-.02-.28-.02-.42,0-.12,0-.19,0-.19-.11s.09-.09.28-.09h2.97c.15,0,.24,0,.24.09s-.07.11-.18.11c-.12,0-.24,0-.36,0-.32,0-.41.25-.43.66s0,.69,0,2.44v2c0,1.12,0,2,.05,2.52,0,.32.12.53.47.57.2.02.4.02.6,0,.13,0,.19,0,.19.09s-.1.11-.22.11h-3.32c-.16,0-.24,0-.24-.11s.05-.09.19-.09c.14.02.28.02.42,0,.24,0,.31-.24.35-.57.06-.49.06-1.4.06-2.52"/>
  <path class="st4" d="M10.01,104.17c0,.9.17,1.2.41,1.28.2.06.4.09.61.08.13,0,.21,0,.21.09s-.11.12-.28.12h-2.73c-.15,0-.26,0-.26-.12s.08-.09.2-.09c.18,0,.35-.02.52-.06.31-.09.36-.43.37-1.43l.1-6.83c0-.23,0-.39.16-.39s.23.15.43.36,1.93,2,3.65,3.7c.8.78,2.39,2.44,2.59,2.63h.06l-.12-5.18c0-.7-.12-.92-.4-1-.2-.06-.42-.08-.63-.07-.13,0-.18,0-.18-.1s.13-.1.3-.1h2.58c.15,0,.27,0,.27.1s-.07.1-.21.1c-.12-.02-.23-.02-.35,0-.33.09-.43.33-.44,1l-.13,7.28c0,.25,0,.36-.15.36s-.27-.13-.4-.26c-.75-.69-2.25-2.2-3.47-3.39s-2.59-2.69-2.8-2.91h0"/>
  <path class="st4" d="M20.84,105.6c-.19-.09-.22-.14-.22-.4,0-.63.05-1.32.06-1.5s0-.3.14-.3.12.1.12.19c0,.2.04.4.1.59.22.74.92,1.22,1.69,1.16.78.08,1.48-.48,1.57-1.26,0-.02,0-.03,0-.05,0-.57-.17-1.1-1.15-1.85l-.54-.41c-1.3-1-1.74-1.8-1.74-2.74,0-1.27,1.08-2.17,2.72-2.17.53,0,1.05.06,1.56.19.11,0,.17,0,.17.14s-.05.49-.05,1.38c0,.26,0,.35-.13.35s-.12-.07-.12-.21c-.02-.28-.13-.54-.3-.76-.31-.39-.79-.6-1.29-.57-.87,0-1.4.5-1.4,1.19s.27.94,1.25,1.66l.33.25c1.42,1,1.93,1.84,1.93,2.94,0,.82-.41,1.58-1.11,2-.56.34-1.21.5-1.87.48-.59.02-1.17-.08-1.72-.3"/>
  <path class="st4" d="M28.83,100.36v-2.44c0-.37-.12-.58-.51-.66-.15-.01-.31-.01-.46,0-.13,0-.2,0-.2-.1s.08-.1.26-.1h3.17c.17,0,.26,0,.26.1s-.08.1-.19.1c-.11,0-.23,0-.34,0-.32,0-.41.25-.44.66s0,.69,0,2.44v1.62c0,1.67.34,2.37.91,2.83.42.33.95.5,1.48.48.6,0,1.18-.22,1.62-.63.65-.63.68-1.67.68-2.86v-3.88c0-.37-.12-.58-.51-.66-.14-.01-.28-.01-.42,0-.13,0-.2,0-.2-.1s.08-.1.25-.1h2.69c.16,0,.25,0,.25.1s-.07.1-.21.1c-.11,0-.23,0-.34,0-.32,0-.42.25-.44.66s0,.69,0,2.44v1.24c.16,1.27-.25,2.54-1.12,3.47-.68.57-1.56.87-2.45.83-.94.06-1.87-.22-2.61-.8-.78-.79-1.16-1.89-1.05-3"/>
  <path class="st4" d="M41.75,101.27c0,.13,0,.18.1.21.29.08.6.12.9.12.3.04.59-.03.84-.2.5-.43.76-1.07.69-1.73.14-1.02-.57-1.96-1.59-2.09-.07,0-.14-.01-.21-.02-.21-.02-.42-.02-.63,0-.08,0-.1.07-.1.16M40.36,100.36v-2.44c0-.37-.12-.58-.51-.66-.15-.01-.31-.01-.46,0-.13,0-.2,0-.2-.1s.09-.1.26-.1h3.27c.76-.05,1.51.12,2.17.49.5.37.79.96.8,1.58-.06,1.06-.64,2.03-1.55,2.58,1,1.3,1.86,2.32,2.55,3,.34.4.8.68,1.31.78.11.01.23.01.34,0,.09,0,.14,0,.14.09s-.09.11-.23.11h-1.13c-.43.04-.87-.03-1.26-.21-.65-.45-1.21-1.03-1.62-1.7-.47-.63-1-1.42-1.16-1.59-.05-.06-.13-.09-.21-.08h-1c-.06,0-.09,0-.09.1v.16c0,1.07,0,2,.06,2.47,0,.33.1.59.46.63.19.01.39.01.58,0,.09,0,.13,0,.13.09s-.08.11-.23.11h-3.17c-.15,0-.23,0-.23-.11s.05-.09.19-.09c.14.02.28.02.42,0,.24,0,.29-.3.34-.63.06-.49.06-1.4.06-2.46l-.03-2.02Z"/>
  <path class="st4" d="M53.11,102.15c.06,0,.07,0,.06-.07l-1.06-2.85v-.1s-.06.06-.07.1l-1.09,2.84v.08M50.71,102.73s-.08,0-.1.09l-.64,1.65c-.09.22-.15.46-.17.7,0,.21.1.36.47.36h.17c.14,0,.18,0,.18.09s-.07.11-.2.11h-2.64c-.15,0-.22,0-.22-.11s0-.09.14-.09h.37c.54-.07.76-.47,1-1l3-7.25c.14-.33.21-.46.33-.46s.18.11.29.37c.29.64,2.17,5.34,2.92,7.1.45,1,.79,1.19,1,1.25.16.02.33.02.49,0,.1,0,.16,0,.16.09s-.11.11-.55.11h-2.22c-.21,0-.35,0-.35-.09s0-.09.16-.1c.1-.04.15-.16.11-.26,0,0,0,0,0-.01l-.95-2.46c-.02-.05-.07-.08-.12-.08h-2.63Z"/>
  <path class="st4" d="M60.14,104.17c0,.9.17,1.2.41,1.28.2.06.4.09.61.08.13,0,.2,0,.2.09s-.1.12-.27.12h-2.73c-.15,0-.26,0-.26-.12s.07-.09.19-.09c.18,0,.36-.02.53-.06.3-.09.35-.43.36-1.43l.11-6.83c0-.23,0-.39.15-.39s.24.15.44.36,1.93,2,3.65,3.7c.8.78,2.39,2.44,2.58,2.63h.06l-.12-5.18c0-.7-.11-.92-.39-1-.2-.06-.42-.08-.63-.07-.14,0-.19,0-.19-.1s.13-.1.31-.1h2.58c.15,0,.27,0,.27.1s-.07.1-.21.1c-.12-.02-.24-.02-.36,0-.33.09-.42.33-.43,1l-.13,7.28c0,.25-.05.36-.15.36s-.28-.13-.41-.26c-.74-.69-2.24-2.2-3.47-3.39s-2.59-2.69-2.8-2.91h0"/>
  <path class="st4" d="M71.68,104.64c-1.83-1.68-1.96-4.54-.27-6.37.06-.06.12-.13.18-.19,1.04-.9,2.4-1.35,3.77-1.26.57,0,1.14.04,1.71.12.45.06.82.16,1.18.2.13,0,.17.07.17.13s0,.24-.05.64,0,1,0,1.24,0,.27-.14.27-.12-.09-.12-.25c-.02-.4-.18-.78-.46-1.07-.69-.52-1.53-.77-2.39-.71-.8-.05-1.59.2-2.21.71-.78.79-1.17,1.89-1.08,3-.11,2.16,1.54,4,3.7,4.11,0,0,0,0,0,0,.78.12,1.58-.12,2.16-.65.19-.22.33-.48.4-.76,0-.19.06-.23.15-.23s.11.08.11.17c-.05.52-.14,1.03-.26,1.54-.03.16-.15.29-.31.33-.69.2-1.4.29-2.12.27-1.44.07-2.86-.37-4-1.26"/>
  <path class="st4" d="M81.91,100.36v-2.44c0-.37-.12-.58-.51-.66-.15-.01-.31-.01-.46,0-.13,0-.2,0-.2-.1s.09-.1.26-.1h4.68c.17-.01.33-.04.5-.07.06-.02.13-.04.19-.05.06,0,.07.05.07.11s0,.22-.09.75c0,.11,0,.62-.06.76s0,.13-.12.13-.1-.06-.1-.17c0-.14-.03-.28-.07-.41-.08-.21-.2-.34-.79-.42h-1.67c-.06,0-.09,0-.09.12v2.91c0,.08,0,.13.09.13h1.88c.27,0,.46-.06.57-.18s.12-.14.18-.14.09,0,.09.08,0,.26-.1.85v.77c0,.08,0,.22-.1.22-.05,0-.1-.03-.11-.09,0,0,0-.01,0-.02,0-.14,0-.27,0-.41-.06-.23-.23-.4-.67-.45h-1.66c-.06,0-.08,0-.08.11v2.7c0,.79.21,1,1.42,1,.37.02.75-.03,1.1-.14.31-.14.45-.38.53-.85,0-.13,0-.18.13-.18s.1.1.1.21c-.02.43-.07.86-.16,1.28-.08.3-.18.3-.63.3h-4.7c-.16,0-.24,0-.24-.11s0-.09.19-.09c.14.02.28.02.42,0,.24,0,.29-.3.34-.63.06-.49.06-1.4.06-2.46"/>
  <path class="st4" d="M100.91,100.68s.07,0,.07-.08v-2.69c0-.37-.12-.57-.51-.65-.15-.01-.3-.01-.45,0-.14,0-.21,0-.21-.11s.09-.1.25-.1h3.18c.16,0,.25,0,.25.1s-.08.11-.22.11h-.34c-.31.06-.41.25-.43.65s0,.7,0,2.45v2c0,1.06,0,2,.06,2.47,0,.32.11.58.46.62.2.01.4.01.6,0,.13,0,.19,0,.19.09s-.09.12-.23.12h-3.31c-.17,0-.25,0-.25-.12s0-.09.19-.09c.14.01.28.01.42,0,.24,0,.3-.3.34-.63.06-.49.06-1.4.06-2.46v-1s-.02-.06-.05-.07c0,0-.01,0-.02,0h-4.49s-.07,0-.07.07v1c0,1.06,0,2,.06,2.47,0,.32.1.58.46.62.2.01.39.01.59,0,.13,0,.19,0,.19.09s-.09.12-.23.12h-3.32c-.15,0-.24,0-.24-.12s0-.09.19-.09c.14.01.29.01.43,0,.23,0,.29-.3.34-.63.06-.49.06-1.4.06-2.46v-4.45c0-.37-.11-.57-.5-.65-.15-.01-.31-.01-.46,0-.13,0-.2,0-.2-.11s.08-.1.24-.1h3.18c.17,0,.25,0,.25.1s-.07.11-.21.11h-.34c-.32.06-.42.25-.44.65s0,.7,0,2.45v.24c0,.06,0,.08.07.08"/>
  <path class="st4" d="M113.88,101.59c0-2.58-1.52-4.18-3.45-4.18-1.36,0-2.9.74-2.9,3.61,0,2.4,1.36,4.3,3.62,4.3.82,0,2.73-.39,2.73-3.73M105.88,101.38c-.03-2.47,1.95-4.5,4.42-4.54.15,0,.29,0,.44.02,2.93,0,4.75,1.67,4.75,4.31.07,2.55-1.94,4.67-4.48,4.74-.13,0-.26,0-.39,0-2.45.17-4.56-1.68-4.73-4.13,0-.13-.01-.26,0-.39"/>
  <path class="st4" d="M118.59,100.36v-2.44c0-.37-.12-.58-.51-.66-.15-.01-.3-.01-.45,0-.14,0-.2,0-.2-.1s.08-.1.25-.1h3.17c.18,0,.26,0,.26.1s-.07.1-.19.1c-.11,0-.23,0-.34,0-.32,0-.41.25-.44.66s0,.69,0,2.44v1.62c0,1.67.34,2.37.92,2.83.42.33.94.5,1.47.48.6.01,1.18-.22,1.62-.63.65-.63.68-1.67.68-2.86v-3.88c0-.37-.12-.58-.5-.66-.14-.01-.29-.01-.43,0-.13,0-.2,0-.2-.1s.08-.1.25-.1h2.69c.17,0,.25,0,.25.1s-.07.1-.21.1c-.11,0-.23,0-.34,0-.32,0-.42.25-.44.66s0,.69,0,2.44v1.24c.16,1.27-.25,2.54-1.12,3.47-.68.57-1.56.87-2.45.83-.94.06-1.87-.22-2.61-.8-.78-.79-1.16-1.89-1.05-3"/>
  <path class="st4" d="M129.47,105.6c-.19-.09-.22-.14-.22-.4,0-.63.05-1.32.06-1.5s.05-.3.14-.3.12.1.12.19c0,.2.04.4.1.59.22.73.92,1.22,1.69,1.16.77.09,1.47-.46,1.56-1.24,0-.02,0-.05,0-.07,0-.57-.17-1.1-1.15-1.85l-.54-.41c-1.3-1-1.74-1.8-1.74-2.74,0-1.27,1.08-2.17,2.72-2.17.53,0,1.05.06,1.56.19.11,0,.17,0,.17.14s-.05.49-.05,1.38c0,.26,0,.35-.13.35s-.12-.07-.12-.21c-.02-.28-.13-.54-.3-.76-.31-.39-.79-.6-1.29-.57-.87,0-1.4.5-1.4,1.19s.27.94,1.25,1.66l.33.25c1.42,1,1.93,1.84,1.93,2.94,0,.82-.41,1.58-1.11,2-.57.33-1.21.5-1.87.48-.59.02-1.17-.08-1.72-.3"/>
  <path class="st4" d="M137.97,100.36v-2.44c0-.37-.11-.58-.5-.66-.15-.01-.31-.01-.46,0-.13,0-.2,0-.2-.1s.08-.1.26-.1h4.64c.17-.01.33-.04.5-.07.06-.02.13-.04.19-.05.06,0,.07.05.07.11-.04.25-.07.5-.09.75,0,.11,0,.62-.06.76s0,.13-.12.13-.11-.06-.11-.17c0-.14-.02-.28-.07-.41-.08-.21-.2-.34-.79-.42h-1.66c-.06,0-.09,0-.09.12v2.91c0,.08,0,.13.09.13h1.87c.27,0,.47-.06.57-.18s.13-.14.19-.14.08,0,.08.08,0,.26-.09.85c0,.23-.05.69-.05.77s0,.22-.1.22-.11,0-.11-.11c.01-.14.01-.27,0-.41-.06-.23-.22-.4-.66-.45h-1.67c-.06,0-.07,0-.07.11v2.7c0,.79.21,1,1.41,1,.38.02.75-.02,1.11-.14.31-.14.44-.38.53-.85,0-.13.05-.18.12-.18s.1.1.1.21c-.02.43-.07.86-.15,1.28-.08.3-.19.3-.64.3h-4.71c-.15,0-.24,0-.24-.11s0-.09.2-.09c.14.02.27.02.41,0,.25,0,.3-.3.35-.63.06-.49.06-1.4.06-2.46"/>
  <path class="st4" d="M92.96,80.91c-.2.11-.42.16-.64.15h-.33c-.45,0-.56-.46-.56-.76s.13-.64.56-.64c.22,0,.41.12.5.32v.07c-.03.08-.08.17-.13.24h.73c-.22-.46-.36-.86-1-.86-.49-.06-.94.3-1,.79,0,.05,0,.09,0,.14-.02.27.09.53.29.7-.23,0-.46-.04-.67-.15v.39h2.33"/>
  <path class="st4" d="M99.94,83.82c.59.05,1.11-.39,1.16-.97,0,0,0-.02,0-.03-.05-.59-.56-1.04-1.16-1-.59-.02-1.1.41-1.16,1,.05.59.56,1.04,1.16,1"/>
  <path class="st4" d="M102.61,83.82c.59.05,1.11-.39,1.16-.97,0,0,0-.02,0-.03-.05-.59-.56-1.04-1.16-1-.59-.02-1.1.41-1.16,1,.05.59.56,1.04,1.16,1"/>
  <path class="st4" d="M3.36,88c.59.05,1.11-.39,1.16-.97,0,0,0-.02,0-.03-.05-.59-.57-1.03-1.16-1-.59-.03-1.11.41-1.17,1,.05.6.57,1.05,1.17,1"/>
  <path class="st4" d="M43.85,91.47c-.59-.02-1.1.41-1.16,1,.05.59.56,1.04,1.16,1,.58.06,1.1-.37,1.16-.95,0-.02,0-.03,0-.05-.05-.59-.56-1.04-1.16-1"/>
  <path class="st4" d="M46.52,91.47c-.59-.02-1.1.41-1.16,1,.05.59.56,1.04,1.16,1,.58.06,1.1-.37,1.16-.95,0-.02,0-.03,0-.05-.05-.59-.56-1.04-1.16-1"/>
  <path class="st4" d="M122.98,85.75c.1.32.14.66.13,1v3.76c.03.58-.14,1.16-.49,1.63-.31.39-.79.62-1.29.6h-4.72l-1.94,1.29h6.74c.79.03,1.57-.26,2.15-.8.51-.46.81-1.11.82-1.8v-4.68c-.01-.34.03-.68.13-1,.09-.28.23-.54.4-.78h-2.31c.16.24.29.5.38.78"/>
  <path class="st4" d="M128.51,81.92h-2.53c.39.47.59,1.08.55,1.69v5.75c.04.61-.16,1.22-.55,1.69h2.53c-.41-.49-.62-1.12-.58-1.76v-5.61c-.04-.64.17-1.27.58-1.76"/>
  <path class="st4" d="M142.72,88.26c0-2.94-3.22-2.71-3.22-2.71h-9.39l1.57.88h8.26c1.13.11,1,1.76,1,1.76,0,1.89-1.29,1.95-1.29,1.95h-8l-1.49.79h9.42c3.27,0,3.11-2.67,3.11-2.67"/>
  <path class="st4" d="M110.24,82.61c.09-.28.22-.54.38-.78h-2.26c.17.24.31.5.4.78.09.33.13.66.12,1v6.61h-7v-3.49c0-.34.04-.68.13-1,.09-.28.23-.54.4-.78h-2.31c.16.24.29.51.38.78.09.32.14.66.13,1v3.49h-7.68v-6.61c-.01-.34.03-.68.13-1,.09-.28.23-.54.4-.78h-2.4c.16.24.29.5.38.78.1.32.14.66.13,1v5.63c.01.34-.03.68-.13,1-.1.27-.22.54-.38.78h19.56c-.16-.24-.28-.51-.38-.78-.1-.32-.14-.66-.13-1v-5.63c-.01-.34.03-.68.13-1"/>
  <path class="st4" d="M113.88,81.82h-2.31c.37.49.55,1.09.51,1.7v5.75c.04.6-.14,1.2-.51,1.68h2.31c-.37-.5-.56-1.12-.52-1.75v-5.61c-.04-.63.15-1.26.52-1.77"/>
  <path class="st4" d="M86.41,89.56c0,1.06-.4,2.38-1.91,2.38h-1.8v-3.79c0-1,.42-2.4,1.91-2.4.99-.01,1.8.78,1.81,1.77,0,.08,0,.16-.01.23M84.5,84.99c-.84-.02-1.66.28-2.29.85-.52.5-.81,1.2-.78,1.93v2.43h-34.07v-3.48c-.01-.34.03-.68.13-1,.09-.28.23-.54.4-.78h-2.3c.16.24.29.51.38.78.09.32.14.66.13,1v3.48H8.1v-3.48c-.01-.34.03-.68.13-1,.09-.28.23-.54.4-.78h-2.27c.16.24.3.51.4.78.1.32.14.66.13,1v3.78c.02.59-.17,1.16-.53,1.62-.31.39-.79.62-1.29.6-.51.02-1-.2-1.32-.6-.34-.47-.51-1.05-.47-1.63v-.35h-1.28v1.25c.02.69.33,1.35.85,1.8.57.53,1.34.82,2.12.8h.19c.78.02,1.55-.27,2.12-.8.52-.45.83-1.11.85-1.8v-.41h73.3v1.76h3.16c1.22,0,2.34-.65,2.92-1.72.11-.25.19-.51.24-.77.02-.37.02-.75,0-1.12v-1.2c-.07-1.69-1.5-3.01-3.19-2.95-.03,0-.07,0-.1,0"/>
  <path class="st5" d="M55.93,110.97v-1.14c0-.14,0-.27-.22-.3h-.19c-.05,0-.08,0-.08-.05s0,0,.11,0h1.41c.33-.04.67.08.91.31.16.18.24.4.25.64.05.67-.45,1.25-1.12,1.3-.03,0-.06,0-.09,0h-.1s-.06,0-.06-.05,0-.06.14-.06c.41-.09.69-.47.65-.89.02-.3-.08-.59-.28-.81-.13-.13-.31-.2-.49-.21-.06-.01-.13-.01-.19,0v3.4c0,.23,0,.27.19.29.08,0,.17,0,.25,0h.08-1.6.08c.06.01.12.01.18,0,.1,0,.12-.14.14-.29s0-.65,0-1.15l.03-.99Z"/>
  <path class="st5" d="M58.01,113.14c-.02-.16.1-.31.27-.33,0,0,.01,0,.02,0,.16,0,.29.12.3.28,0,.01,0,.02,0,.03.02.17-.1.33-.27.35-.01,0-.02,0-.03,0-.17,0-.3-.14-.29-.31,0,0,0-.01,0-.02"/>
  <path class="st5" d="M59.72,110.97v-1.14c0-.14,0-.27-.21-.3h-.19c-.06,0-.08,0-.08-.05s0,0,.1,0h1.42s0,.05-.09.05h-.14c-.14,0-.17.11-.18.3s0,.32,0,1.14v1.76c.02.34-.03.68-.12,1-.16.42-.45.77-.83,1l-.24.14h-.1l.11-.1c.09-.06.16-.12.23-.2.37-.42.37-1,.37-2l-.05-1.6Z"/>
  <path class="st5" d="M61.27,113.14c-.02-.16.1-.31.27-.33,0,0,.01,0,.02,0,.16,0,.29.12.3.28,0,.01,0,.02,0,.03.02.17-.1.33-.27.35-.01,0-.02,0-.03,0-.17,0-.3-.14-.29-.31,0,0,0-.01,0-.02"/>
  <path class="st5" d="M62.71,113.42c-.08,0-.09-.07-.09-.18v-.71c0-.09,0-.14.06-.14s0,.05,0,.09c0,.09,0,.19,0,.28.07.33.37.55.7.54.34.02.64-.24.66-.58,0-.01,0-.02,0-.03,0-.35-.18-.68-.48-.87l-.23-.19c-.43-.29-.69-.76-.72-1.28,0-.55.44-1,.99-1.01.05,0,.09,0,.14,0,.22,0,.44.03.65.09,0,0,.07,0,.07.06v.81-.1c0-.14-.03-.27-.1-.39-.12-.18-.32-.28-.53-.27-.3-.03-.56.19-.59.49,0,.02,0,.05,0,.07,0,.25.12.44.52.78l.14.11c.48.3.78.81.8,1.37,0,.37-.16.72-.46.94-.23.15-.5.23-.78.22-.24,0-.49-.04-.71-.14"/>
  <path class="st5" d="M65.36,113.14c-.01-.17.12-.32.29-.33,0,0,0,0,.01,0,.17,0,.3.13.3.3,0,0,0,0,0,.01.02.18-.11.33-.29.35,0,0-.01,0-.02,0-.17,0-.3-.14-.29-.31,0,0,0-.01,0-.02"/>
  <path class="st5" d="M67.13,112.97c-.79-.87-.79-2.19,0-3.06.41-.4.98-.61,1.55-.57.24-.02.47-.02.71,0,.18,0,.34.08.49.09s.07,0,.07.07v.87c0,.1,0,.13-.06.13s0,0,0-.12c0-.18-.07-.36-.19-.5-.28-.24-.64-.35-1-.33-.34-.02-.67.1-.92.33-.33.39-.49.89-.45,1.4-.1.95.59,1.81,1.54,1.92.43,0,.7-.06.89-.31.08-.1.14-.22.17-.35,0-.09,0-.11.06-.11s0,0,0,.08c-.02.24-.06.48-.11.72,0,.09,0,.12-.13.15-.28.1-.58.14-.88.13-.61.04-1.22-.17-1.67-.59"/>
  <path class="st5" d="M77.92,111.62c.06-.11.1-.23.14-.35v-.1h0c-.02-.06-.05-.12-.09-.17-.11-.18-.31-.29-.52-.29-.2,0-.39.09-.5.25-.13.21-.2.45-.18.7-.02.28.05.56.19.8.1.18.29.29.49.29h.41c.15,0,.3-.01.44-.05.12-.03.23-.09.34-.15v.56h-1.88c-.22-.01-.44.04-.64.14-.12.05-.19.18-.14.31.01.03.03.07.06.09.23.19.53.28.83.25.25.02.49-.04.71-.16.07-.04.13-.09.18-.14h.6c-.07.17-.17.33-.29.46-.29.29-.69.45-1.1.42-.44.03-.86-.13-1.17-.44-.29-.21-.35-.61-.14-.89.06-.08.13-.14.21-.19.25-.13.52-.2.8-.21h0c-.23-.28-.36-.64-.35-1-.01-.37.11-.72.35-1,.23-.25.55-.39.89-.39.33,0,.65.14.86.39.18.27.32.57.42.88h-.92Z"/>
  <path class="st5" d="M79.52,113.11c-.14,0-.25-.11-.25-.25s.11-.25.25-.25.25.11.25.25-.11.25-.25.25"/>
  <path class="st5" d="M82.05,110.71c-.57,0-.72.6-.72,1.09v1h.68c.56,0,.71-.61.71-1.1s-.15-.94-.67-.94M82.9,112.76c-.23.23-.53.37-.85.39h-.69v.18c.02.63-.47,1.16-1.1,1.18-.02,0-.03,0-.05,0v-.58c.52,0,.67-.58.67-1v-1.31c0-.32.1-.63.3-.88.22-.25.53-.39.86-.39.7.02,1.25.6,1.23,1.3,0,.03,0,.05,0,.08.02.36-.1.72-.34,1"/>
  <path class="st5" d="M83.93,113.11c-.14,0-.25-.11-.25-.25s.11-.25.25-.25.25.11.25.25-.11.25-.25.25"/>
  <path class="st5" d="M87.08,113.11v.19c0,.3-.11.59-.31.82-.2.24-.49.37-.8.36h-.07c-.31,0-.6-.12-.8-.36-.2-.23-.31-.52-.31-.82v-2.14c0-.15-.01-.3-.05-.45-.03-.13-.08-.25-.15-.36h.88c-.07.11-.12.23-.15.36-.02.15-.02.3,0,.45v1.71c-.01.26.05.52.18.75.15.28.5.38.77.23.1-.05.17-.13.23-.23.14-.23.2-.49.19-.75v-1.71c.02-.15.02-.3,0-.45-.04-.12-.09-.25-.15-.36h.87c-.07.11-.12.23-.15.36-.02.15-.02.3,0,.45v1.59h.33v.36h-.51Z"/>
  <path class="st5" d="M88.28,109.93c-.14,0-.25-.11-.25-.25s.11-.25.25-.25.25.11.25.25-.11.25-.25.25M87.93,109.43c-.14,0-.25-.11-.25-.25s.11-.25.25-.25.25.11.25.25-.11.25-.25.25M87.57,109.93c-.14,0-.25-.11-.25-.25s.11-.25.25-.25.25.11.25.25-.11.25-.25.25M87.29,113.11v-.36h.39v-1.59c.02-.15.02-.3,0-.45-.03-.12-.08-.24-.14-.36h.82c-.07.11-.12.23-.16.36-.02.15-.02.3,0,.45v1.59h.47v-1.59c.02-.15.02-.31,0-.46-.04-.12-.09-.24-.15-.35h.86c-.06.11-.11.23-.14.35-.02.15-.02.31,0,.46v1.14c-.02.15-.02.3,0,.45.03.12.08.24.14.36h-2.09Z"/>
  <rect class="st5" x="71.78" y="111.29" width="1.83" height=".42"/>
</svg>